<?xml version="1.0" encoding="UTF-8" standalone="no"?>
<!-- Created with Inkscape (http://www.inkscape.org/) -->

<svg
   width="512"
   height="512"
   viewBox="0 0 135.46666 135.46667"
   version="1.1"
   id="svg1"
   xmlns="http://www.w3.org/2000/svg"
   xmlns:svg="http://www.w3.org/2000/svg">
  <defs
     id="defs1" />
  <g
     id="layer1">
    <g
       id="g2">
      <g
         id="g1"
         transform="matrix(1.7307463,0,0,1.6998828,-42.796169,-33.978449)">
        <path
           id="path70"
           style="fill:none;stroke:#0d1b24;stroke-width:1.32292;stroke-linecap:round;stroke-opacity:0.941176"
           d="M 86.43792,63.889459 A 16.44558,18.36422 0 0 1 95.51111,84.514925 16.44558,18.36422 0 0 1 79.45077,98.882673" />
        <path
           id="path71"
           style="fill:none;stroke:#0d1b24;stroke-width:1.32292;stroke-linecap:round;stroke-opacity:0.941176"
           d="m 79.79333,29.103066 a 21.658813,21.174829 0 0 1 9.22776,11.774848" />
        <path
           id="path72"
           style="fill:none;stroke:#0d1b24;stroke-width:1.32292;stroke-opacity:0.941176"
           d="M 45.10421,98.641426 A 19.737024,25.726336 0 0 1 28.32029,86.089528 19.737024,25.726336 0 0 1 27.83148,60.875413" />
        <path
           id="path73"
           style="fill:none;stroke:#0d1b24;stroke-width:1.32292;stroke-linecap:round;stroke-opacity:0.941176"
           d="M 53.91489,63.134828 A 16.905874,15.574916 0 0 1 32.19675,60.608669" />
        <path
           id="path74"
           style="fill:none;stroke:#74ca41;stroke-width:1.32292;stroke-linecap:round;stroke-opacity:1"
           d="M 63.70137,74.258294 A 31.798159,32.708607 0 0 1 37.76036,72.038718" />
        <path
           style="fill:none;fill-opacity:1;stroke:#0d1b24;stroke-width:1.32416;stroke-dasharray:none;stroke-opacity:0.941176"
           d="m 44.96699,98.635219 34.51543,0.250972"
           id="path75" />
        <path
           id="path76"
           style="fill:none;stroke:#74ca41;stroke-width:1.32292;stroke-linecap:round;stroke-opacity:1"
           d="M 55.34176,92.640565 A 24.586668,20.721916 0 0 1 37.74563,72.148102" />
        <path
           id="path77"
           style="fill:none;stroke:#0d1b24;stroke-width:1.32292;stroke-linecap:square;stroke-opacity:0.941176"
           d="m 27.75783,61.037309 a 2.4742484,2.4742484 0 0 1 1.84852,-1.534248 2.4742484,2.4742484 0 0 1 2.27956,0.757976" />
        <path
           id="path78"
           style="fill:none;stroke:#0d1b24;stroke-width:1.32292;stroke-linecap:round;stroke-opacity:0.941176"
           d="m 98.90029,42.094814 a 7.7953587,5.0766029 0 0 1 -7.50311,-0.0661" />
        <path
           id="path79"
           style="fill:none;stroke:#0d1b24;stroke-width:1.32292;stroke-linecap:round;stroke-opacity:0.941176"
           d="m 99.04285,42.092582 a 3.2572677,3.0098803 0 0 1 2.51029,1.228573 3.2572677,3.0098803 0 0 1 0.51224,2.581871" />
        <path
           id="path80"
           style="fill:none;stroke:#0d1b24;stroke-width:1.32292;stroke-linecap:round;stroke-opacity:0.941176"
           d="m 86.26308,63.787428 a 3.5691624,3.4197547 0 0 1 -1.64974,-2.747183 3.5691624,3.4197547 0 0 1 1.41362,-2.865496" />
        <path
           id="path81"
           style="fill:#0d1b24;fill-opacity:0.941176;stroke:#0d1b24;stroke-width:0.270036;stroke-linecap:round;stroke-linejoin:miter;stroke-dasharray:none;stroke-opacity:0.941176"
           d="M 75.8474,39.9582 A 4.5829154,4.5829155 0 0 0 71.26468,44.540916 4.5829154,4.5829155 0 0 0 75.8474,49.12416 4.5829154,4.5829155 0 0 0 80.43012,44.540916 4.5829154,4.5829155 0 0 0 75.8474,39.9582 Z m -1.59965,1.258415 a 1.6381208,1.638044 0 0 1 1.63815,1.638152 1.6381208,1.638044 0 0 1 -1.63815,1.638156 1.6381208,1.638044 0 0 1 -1.63816,-1.638156 1.6381208,1.638044 0 0 1 1.63816,-1.638152 z" />
        <path
           style="fill:none;fill-opacity:1;stroke:#0d1b24;stroke-width:1.32292;stroke-linecap:round;stroke-linejoin:miter;stroke-dasharray:none;stroke-opacity:0.941176"
           d="m 89.0211,40.877916 2.37609,1.150802"
           id="path82" />
        <path
           id="path83"
           style="fill:none;stroke:#0d1b24;stroke-width:1.32292;stroke-linecap:round;stroke-opacity:0.941176"
           d="M 102.19238,45.437125 A 8.3910418,8.3910418 0 0 1 97.90006,51.32461" />
        <path
           id="path84"
           style="fill:none;stroke:#0d1b24;stroke-width:1.32292;stroke-linecap:round;stroke-opacity:0.941176"
           d="m 97.75734,51.442048 a 1.7912048,1.7912048 0 0 1 1.05472,1.243413 1.7912048,1.7912048 0 0 1 -0.39008,1.583147" />
        <path
           id="path85"
           style="fill:none;stroke:#0d1b24;stroke-width:1.32292;stroke-linecap:round;stroke-opacity:0.941176"
           d="M 98.41205,54.328533 A 11.70436,8.3346815 0 0 1 86.08221,58.128011" />
        <path
           id="path86"
           style="fill:none;stroke:#0d1b24;stroke-width:1.32292;stroke-linecap:round;stroke-opacity:0.941176"
           d="M 53.98299,62.938533 A 21.658813,21.174829 0 0 1 47.52637,41.07332 21.658813,21.174829 0 0 1 65.0704,26.115303" />
        <path
           id="path87"
           style="fill:none;stroke:#0d1b24;stroke-width:1.32292;stroke-linecap:round;stroke-opacity:0.941176"
           d="m 70.63793,23.815214 a 9.9937563,8.4399557 0 0 1 -5.46256,2.281104" />
        <path
           style="fill:none;fill-opacity:1;stroke:#0d1b24;stroke-width:1.32292;stroke-linecap:round;stroke-linejoin:miter;stroke-dasharray:none;stroke-opacity:0.941176"
           d="m 70.637929,23.815214 c 1.026154,-0.748352 2.052309,-1.496705 3.078464,-2.245058"
           id="path88" />
        <path
           id="path89"
           style="fill:none;stroke:#0d1b24;stroke-width:1.32291;stroke-linecap:round;stroke-linejoin:round;stroke-opacity:0.941176"
           d="m 73.791508,21.509361 a 2.398816,4.0985503 27.04588 0 1 2.963332,-0.103312 2.398816,4.0985503 27.04588 0 1 -0.131301,4.010294" />
        <path
           id="path90"
           style="fill:none;stroke:#0d1b24;stroke-width:1.32292;stroke-linecap:round;stroke-linejoin:round;stroke-opacity:0.941176"
           d="m 76.56884,25.656584 a 2.3075328,2.3075328 0 0 1 2.24275,-0.558214 2.3075328,2.3075328 0 0 1 1.60177,1.666096 2.3075328,2.3075328 0 0 1 -0.64604,2.219044" />
        <path
           d="m 89.74825,41.84738 -0.11059,10e-4 -0.0465,5.16e-4 c -0.29683,0.830279 -0.19148,1.809476 -0.40411,2.691309 -0.32243,1.962205 -1.12567,3.876599 -2.63498,5.219836 -1.16948,1.298107 -2.67191,2.295389 -3.68815,3.724837 -0.51532,0.97491 0.50221,1.85006 1.14877,2.452564 0.83995,0.663524 1.66538,1.505623 2.73678,1.74873 3.64719,0.291105 7.58325,-0.456189 10.42676,-2.883545 0.63779,-0.561665 1.52387,-1.460781 0.9617,-2.362129 -0.23261,-0.448228 -1.23435,-0.639626 -0.80719,-1.273824 0.87917,-0.715958 1.90073,-1.293241 2.60708,-2.213819 0.89576,-1.104572 1.59221,-2.471598 1.69498,-3.905188 -0.0675,-1.549304 -1.75379,-2.755539 -3.24114,-2.249991 -2.87726,0.758899 -5.99465,0.466794 -8.6434,-0.95033 z"
           style="fill:#74ca41;fill-opacity:1;stroke-width:0;stroke-linecap:round;stroke-linejoin:round"
           id="path161" />
      </g>
      <path
         style="fill:#eff3f6;fill-opacity:1;stroke:#74ca41;stroke-width:0;stroke-linecap:round;stroke-linejoin:round"
         d="M 332.42437,9.3041267 C 319.2659,14.110116 309.10562,24.734625 297.11192,31.779455 278.49956,44.586256 254.58582,42.88159 234.29198,51.613334 183.11422,70.242093 145.47822,122.80757 147.83419,177.75388 c 0.8289,34.15194 16.68472,66.98438 41.43413,90.28239 2.60784,3.06452 9.14227,8.73199 4.02649,12.46535 -29.09479,17.79601 -65.56746,20.7152 -98.030684,12.02921 -20.364423,-5.78151 -38.520784,-17.58464 -53.623737,-32.29477 -6.545715,-5.19832 -16.200254,-0.5744 -18.302556,7.01138 -16.0124823,39.67248 -17.2242721,84.59951 -6.677357,125.81393 11.799163,43.62865 40.730539,85.45387 84.154614,101.98626 22.38481,8.9265 46.92104,5.04327 70.37246,6.39443 63.64117,0.52599 127.30478,1.73264 190.93984,0.87574 26.66159,-0.82616 51.93213,-13.97897 69.26782,-34.03054 38.16183,-41.38537 39.752,-110.93315 3.93575,-154.29242 -10.29019,-12.63938 -23.36335,-22.52047 -37.14666,-31.01052 -14.01038,-9.04566 -13.29836,-31.94185 0.25376,-41.08894 4.00489,-3.3798 -4.43131,-4.55096 -6.06201,-7.29208 -4.82308,-4.9715 -13.96054,-9.85125 -12.37203,-17.98594 13.68463,-17.97318 36.46926,-30.88486 40.93947,-54.74171 0.8268,-7.05604 3.66913,-14.64493 2.04163,-21.62375 -4.00879,-1.80729 -7.24322,-4.91132 -8.1272,-9.50065 -10.39606,-28.16355 -30.90573,-51.918852 -55.84221,-68.31032 -3.9573,-2.279315 -3.50576,-7.063473 -0.452,-9.823812 5.21237,-7.609951 -2.99002,-18.90793 -11.86544,-15.35039 -3.28465,1.404172 -9.13203,5.181973 -11.30208,0.565541 0.41976,-8.992745 7.21441,-19.281068 0.34063,-27.480036 -0.8507,-0.8751364 -2.12079,-1.2198047 -3.31245,-1.0481063 z m 1.88004,118.4141633 c 17.47834,-1.01953 33.16944,16.27605 30.30775,33.64641 -1.32869,17.20049 -19.61037,29.4659 -35.91511,25.79214 -17.51255,-2.11792 -28.6954,-21.98748 -23.45794,-38.32575 3.48348,-12.62713 16.29751,-21.11864 29.0653,-21.1128 z M 97.113596,335.72809 c 47.237984,22.96117 103.448374,27.35771 153.222224,10.01378 3.45344,-2.07455 9.89931,-1.63905 8.47655,3.94132 -3.36416,5.28252 -11.34314,4.98191 -16.702,7.2363 -18.05095,5.40197 -36.82613,7.55028 -55.65221,6.78749 -20.06918,0.7683 -40.12909,-1.11968 -59.18691,-7.7643 -12.70159,-3.88712 -25.33275,-8.16928 -37.282592,-14.02203 -2.002029,3.99512 0.576131,10.15744 0.897441,14.93988 5.861789,30.18751 23.198521,57.73977 48.016371,75.94186 18.11627,14.52617 39.79986,23.33653 61.76455,30.17548 5.36462,0.72014 3.93311,8.56792 -0.97002,7.38166 -28.41556,-6.00209 -55.07107,-20.10951 -76.5598,-39.61406 -26.619959,-24.05303 -43.468115,-59.64578 -42.214662,-95.73795 0.999455,-4.34055 4.746744,-6.64384 8.467793,-2.96868 2.574421,1.22974 5.148843,2.4595 7.723265,3.68925 z"
         id="path2"
         transform="scale(0.26458333)" />
      <path
         style="fill:#eff3f6;stroke:#19262f;stroke-width:0.0329966;stroke-linecap:round;stroke-linejoin:round;stroke-opacity:0.996078"
         d="m 85.698022,35.867915 c -1.166739,-0.008 -2.305298,0.712771 -2.776489,1.783831 -0.426428,0.906319 -0.33289,2.024439 0.230248,2.851402 0.641981,0.989794 1.892253,1.536297 3.054335,1.326145 0.93809,-0.138851 1.774176,-0.75712 2.216568,-1.590666 0.55514,-1.027492 0.407316,-2.378604 -0.351823,-3.265335 -0.575234,-0.699032 -1.46842,-1.111736 -2.372839,-1.105377 z"
         id="path1" />
    </g>
  </g>
</svg>
