<?xml version="1.0" encoding="UTF-8" standalone="no"?>
<!-- Created with Inkscape (http://www.inkscape.org/) -->

<svg
   width="1200"
   height="400"
   viewBox="0 0 317.49999 105.83333"
   version="1.1"
   id="svg1"
   inkscape:version="1.4.4 (dcaf3e7d, 2026-05-05)"
   sodipodi:docname="main_logo.svg"
   xml:space="preserve"
   xmlns:inkscape="http://www.inkscape.org/namespaces/inkscape"
   xmlns:sodipodi="http://sodipodi.sourceforge.net/DTD/sodipodi-0.dtd"
   xmlns="http://www.w3.org/2000/svg"
   xmlns:svg="http://www.w3.org/2000/svg"><sodipodi:namedview
     id="namedview1"
     pagecolor="#ffffff"
     bordercolor="#999999"
     borderopacity="1"
     inkscape:showpageshadow="false"
     inkscape:pageopacity="0"
     inkscape:pagecheckerboard="0"
     inkscape:deskcolor="#d1d1d1"
     inkscape:document-units="px"
     showborder="false"
     inkscape:zoom="0.57605174"
     inkscape:cx="579.80903"
     inkscape:cy="420.10115"
     inkscape:window-width="1421"
     inkscape:window-height="717"
     inkscape:window-x="0"
     inkscape:window-y="25"
     inkscape:window-maximized="0"
     inkscape:current-layer="layer1"
     showgrid="false" /><defs
     id="defs1" /><g
     inkscape:label="Layer 1"
     inkscape:groupmode="layer"
     id="layer1"><g
       id="g6"
       inkscape:export-filename="main_logo.png"
       inkscape:export-xdpi="96"
       inkscape:export-ydpi="96"><g
         id="g5"
         transform="translate(-25.93217,-1.6648753)"
         inkscape:export-filename="g5.png"
         inkscape:export-xdpi="96"
         inkscape:export-ydpi="96"><text
           xml:space="preserve"
           style="font-style:normal;font-variant:normal;font-weight:bold;font-stretch:normal;font-size:26.4701px;font-family:'JetBrains Mono';-inkscape-font-specification:'JetBrains Mono Bold';writing-mode:lr-tb;direction:ltr;fill:#eff3f6;fill-opacity:1;stroke:#0d1b24;stroke-width:0.396875;stroke-linecap:round;stroke-linejoin:round;stroke-dasharray:none;stroke-opacity:0.941176"
           x="109.34627"
           y="49.706898"
           id="text1"><tspan
             sodipodi:role="line"
             id="tspan1"
             style="font-style:normal;font-variant:normal;font-weight:bold;font-stretch:normal;font-size:26.4701px;font-family:'JetBrains Mono';-inkscape-font-specification:'JetBrains Mono Bold';fill:#eff3f6;fill-opacity:1;stroke:#0d1b24;stroke-width:0.396875;stroke-dasharray:none;stroke-opacity:0.941176"
             x="109.34627"
             y="49.706898">forloop</tspan></text><g
           id="g1"
           transform="matrix(0.6147541,0,0,0.6037915,195.68965,18.234901)"><path
             id="path70"
             style="fill:none;stroke:#0d1b24;stroke-width:1.32292;stroke-linecap:round;stroke-opacity:0.941176"
             d="M 86.43792,63.889459 A 16.44558,18.36422 0 0 1 95.51111,84.514925 16.44558,18.36422 0 0 1 79.45077,98.882673" /><path
             id="path71"
             style="fill:none;stroke:#0d1b24;stroke-width:1.32292;stroke-linecap:round;stroke-opacity:0.941176"
             d="m 79.79333,29.103066 a 21.658813,21.174829 0 0 1 9.22776,11.774848" /><path
             id="path72"
             style="fill:none;stroke:#0d1b24;stroke-width:1.32292;stroke-opacity:0.941176"
             d="M 45.10421,98.641426 A 19.737024,25.726336 0 0 1 28.32029,86.089528 19.737024,25.726336 0 0 1 27.83148,60.875413" /><path
             id="path73"
             style="fill:none;stroke:#0d1b24;stroke-width:1.32292;stroke-linecap:round;stroke-opacity:0.941176"
             d="M 53.91489,63.134828 A 16.905874,15.574916 0 0 1 32.19675,60.608669" /><path
             id="path74"
             style="fill:none;stroke:#74ca41;stroke-width:1.32292;stroke-linecap:round;stroke-opacity:1"
             d="M 63.70137,74.258294 A 31.798159,32.708607 0 0 1 37.76036,72.038718" /><path
             style="fill:none;fill-opacity:1;stroke:#0d1b24;stroke-width:1.32416;stroke-dasharray:none;stroke-opacity:0.941176"
             d="m 44.96699,98.635219 34.51543,0.250972"
             id="path75" /><path
             id="path76"
             style="fill:none;stroke:#74ca41;stroke-width:1.32292;stroke-linecap:round;stroke-opacity:1"
             d="M 55.34176,92.640565 A 24.586668,20.721916 0 0 1 37.74563,72.148102" /><path
             id="path77"
             style="fill:none;stroke:#0d1b24;stroke-width:1.32292;stroke-linecap:square;stroke-opacity:0.941176"
             d="m 27.75783,61.037309 a 2.4742484,2.4742484 0 0 1 1.84852,-1.534248 2.4742484,2.4742484 0 0 1 2.27956,0.757976" /><path
             id="path78"
             style="fill:none;stroke:#0d1b24;stroke-width:1.32292;stroke-linecap:round;stroke-opacity:0.941176"
             d="m 98.90029,42.094814 a 7.7953587,5.0766029 0 0 1 -7.50311,-0.0661" /><path
             id="path79"
             style="fill:none;stroke:#0d1b24;stroke-width:1.32292;stroke-linecap:round;stroke-opacity:0.941176"
             d="m 99.04285,42.092582 a 3.2572677,3.0098803 0 0 1 2.51029,1.228573 3.2572677,3.0098803 0 0 1 0.51224,2.581871" /><path
             id="path80"
             style="fill:none;stroke:#0d1b24;stroke-width:1.32292;stroke-linecap:round;stroke-opacity:0.941176"
             d="m 86.26308,63.787428 a 3.5691624,3.4197547 0 0 1 -1.64974,-2.747183 3.5691624,3.4197547 0 0 1 1.41362,-2.865496" /><path
             id="path81"
             style="fill:#0d1b24;fill-opacity:0.941176;stroke:#0d1b24;stroke-width:0.270036;stroke-linecap:round;stroke-linejoin:miter;stroke-dasharray:none;stroke-opacity:0.941176"
             d="M 75.8474,39.9582 A 4.5829154,4.5829155 0 0 0 71.26468,44.540916 4.5829154,4.5829155 0 0 0 75.8474,49.12416 4.5829154,4.5829155 0 0 0 80.43012,44.540916 4.5829154,4.5829155 0 0 0 75.8474,39.9582 Z m -1.59965,1.258415 a 1.6381208,1.638044 0 0 1 1.63815,1.638152 1.6381208,1.638044 0 0 1 -1.63815,1.638156 1.6381208,1.638044 0 0 1 -1.63816,-1.638156 1.6381208,1.638044 0 0 1 1.63816,-1.638152 z" /><path
             style="fill:none;fill-opacity:1;stroke:#0d1b24;stroke-width:1.32292;stroke-linecap:round;stroke-linejoin:miter;stroke-dasharray:none;stroke-opacity:0.941176"
             d="m 89.0211,40.877916 2.37609,1.150802"
             id="path82" /><path
             id="path83"
             style="fill:none;stroke:#0d1b24;stroke-width:1.32292;stroke-linecap:round;stroke-opacity:0.941176"
             d="M 102.19238,45.437125 A 8.3910418,8.3910418 0 0 1 97.90006,51.32461" /><path
             id="path84"
             style="fill:none;stroke:#0d1b24;stroke-width:1.32292;stroke-linecap:round;stroke-opacity:0.941176"
             d="m 97.75734,51.442048 a 1.7912048,1.7912048 0 0 1 1.05472,1.243413 1.7912048,1.7912048 0 0 1 -0.39008,1.583147" /><path
             id="path85"
             style="fill:none;stroke:#0d1b24;stroke-width:1.32292;stroke-linecap:round;stroke-opacity:0.941176"
             d="M 98.41205,54.328533 A 11.70436,8.3346815 0 0 1 86.08221,58.128011" /><path
             id="path86"
             style="fill:none;stroke:#0d1b24;stroke-width:1.32292;stroke-linecap:round;stroke-opacity:0.941176"
             d="M 53.98299,62.938533 A 21.658813,21.174829 0 0 1 47.52637,41.07332 21.658813,21.174829 0 0 1 65.0704,26.115303" /><path
             id="path87"
             style="fill:none;stroke:#0d1b24;stroke-width:1.32292;stroke-linecap:round;stroke-opacity:0.941176"
             d="m 70.63793,23.815214 a 9.9937563,8.4399557 0 0 1 -5.46256,2.281104" /><path
             style="fill:none;fill-opacity:1;stroke:#0d1b24;stroke-width:1.32292;stroke-linecap:round;stroke-linejoin:miter;stroke-dasharray:none;stroke-opacity:0.941176"
             d="m 70.637929,23.815214 c 1.026154,-0.748352 2.052309,-1.496705 3.078464,-2.245058"
             id="path88" /><path
             id="path89"
             style="fill:none;stroke:#0d1b24;stroke-width:1.32291;stroke-linecap:round;stroke-linejoin:round;stroke-opacity:0.941176"
             d="m 73.791508,21.509361 a 2.398816,4.0985503 27.04588 0 1 2.963332,-0.103312 2.398816,4.0985503 27.04588 0 1 -0.131301,4.010294" /><path
             id="path90"
             style="fill:none;stroke:#0d1b24;stroke-width:1.32292;stroke-linecap:round;stroke-linejoin:round;stroke-opacity:0.941176"
             d="m 76.56884,25.656584 a 2.3075328,2.3075328 0 0 1 2.24275,-0.558214 2.3075328,2.3075328 0 0 1 1.60177,1.666096 2.3075328,2.3075328 0 0 1 -0.64604,2.219044" /><path
             d="m 89.74825,41.84738 -0.11059,10e-4 -0.0465,5.16e-4 c -0.29683,0.830279 -0.19148,1.809476 -0.40411,2.691309 -0.32243,1.962205 -1.12567,3.876599 -2.63498,5.219836 -1.16948,1.298107 -2.67191,2.295389 -3.68815,3.724837 -0.51532,0.97491 0.50221,1.85006 1.14877,2.452564 0.83995,0.663524 1.66538,1.505623 2.73678,1.74873 3.64719,0.291105 7.58325,-0.456189 10.42676,-2.883545 0.63779,-0.561665 1.52387,-1.460781 0.9617,-2.362129 -0.23261,-0.448228 -1.23435,-0.639626 -0.80719,-1.273824 0.87917,-0.715958 1.90073,-1.293241 2.60708,-2.213819 0.89576,-1.104572 1.59221,-2.471598 1.69498,-3.905188 -0.0675,-1.549304 -1.75379,-2.755539 -3.24114,-2.249991 -2.87726,0.758899 -5.99465,0.466794 -8.6434,-0.95033 z"
             style="fill:#74ca41;fill-opacity:1;stroke-width:0;stroke-linecap:round;stroke-linejoin:round"
             id="path161" /></g><text
           xml:space="preserve"
           style="font-style:normal;font-variant:normal;font-weight:normal;font-stretch:normal;font-size:25.4px;font-family:'JetBrains Mono';-inkscape-font-specification:'JetBrains Mono';writing-mode:lr-tb;direction:ltr;fill:#74ca41;fill-opacity:1;stroke:#19262f;stroke-width:0.396875;stroke-linecap:round;stroke-linejoin:round;stroke-dasharray:none;stroke-opacity:0.996078;paint-order:normal"
           x="108.56695"
           y="74.207336"
           id="text4"><tspan
             sodipodi:role="line"
             id="tspan4"
             style="font-style:normal;font-variant:normal;font-weight:normal;font-stretch:normal;font-family:'JetBrains Mono';-inkscape-font-specification:'JetBrains Mono';fill:#74ca41;fill-opacity:1;stroke:#19262f;stroke-width:0.396875;stroke-dasharray:none;stroke-opacity:0.996078;paint-order:normal"
             x="108.56695"
             y="74.207336">coding</tspan></text><path
           style="fill:#eff3f6;fill-opacity:1;stroke:#19262f;stroke-width:0.908901;stroke-linecap:round;stroke-linejoin:round;stroke-dasharray:none;stroke-opacity:0.996078;paint-order:normal"
           d="m 915.00262,117.77128 c -7.7726,3.09745 -13.52635,10.39656 -22.21362,11.50801 -14.48049,1.99566 -28.32236,9.89389 -36.23901,22.391 -5.66926,8.31575 -7.80383,18.49625 -7.00927,28.44624 0.42664,12.03633 7.24543,22.91955 15.66172,31.12951 2.47992,2.52404 -2.00346,3.86033 -3.76127,4.72258 -10.92006,4.88427 -23.94067,4.73791 -35.03269,0.46809 -6.37052,-2.27774 -11.01342,-7.43652 -16.69987,-10.78847 -3.94826,0.33712 -5.06443,5.33131 -6.3197,8.40497 -7.5511,23.9502 -2.00009,53.01196 17.58527,69.70581 6.78595,5.74141 15.46203,9.49204 24.47363,8.92994 27.50861,0.37067 55.03715,1.04433 82.54307,0.43339 15.81734,-1.64918 28.60384,-15.08699 31.95972,-30.26898 3.98179,-15.55733 -1.57315,-33.31547 -14.37441,-43.23232 -3.61872,-3.31669 -10.16396,-5.14724 -10.20378,-11.02834 -0.27759,-3.13222 1.08646,-6.38558 3.51134,-8.19668 -0.85815,-3.55557 -6.84599,-4.51371 -6.40254,-8.66887 4.93967,-6.83258 13.52901,-11.69618 14.5578,-20.81714 0.11779,-2.36977 2.32979,-6.35783 -0.83671,-7.57536 -2.84312,-4.73918 -4.46716,-10.23172 -8.16117,-14.50217 -3.66653,-5.24922 -8.79246,-9.14437 -13.85482,-12.89148 -0.63807,-2.23453 2.41795,-4.64326 0.54557,-6.95285 -1.87341,-2.97333 -5.41856,-1.00625 -7.88305,-0.516 -0.60219,-3.32169 2.65741,-7.94298 -0.69943,-10.48312 -0.3546,-0.16997 -0.7554,-0.23923 -1.14678,-0.21776 z m 0.89234,42.55028 c 6.70856,-0.29411 12.02032,6.84508 9.99554,13.18498 -1.99059,8.62886 -16.11044,9.93077 -19.50586,1.60122 -3.00022,-5.82051 0.85295,-14.07663 7.75524,-14.67732 0.58143,-0.0782 1.16827,-0.11879 1.75508,-0.10888 z m -88.51131,72.27535 c 6.43109,2.139 12.49753,5.59538 19.31498,6.86069 12.89485,3.56211 26.49859,2.06584 39.19324,-1.55314 1.38177,-0.98759 3.4703,0.3558 1.64846,1.52459 -11.31649,4.24756 -23.75541,4.73162 -35.67764,3.44752 -7.7111,-1.16767 -15.04466,-4.03862 -22.27661,-6.72571 -2.23011,0.77875 -0.29723,4.10189 -0.37432,5.82548 3.46682,18.03693 19.21107,31.41085 36.2972,36.35556 1.12042,0.28482 4.52148,1.37132 2.84978,2.79297 -8.50742,-1.36755 -16.5942,-5.45101 -23.42791,-10.68047 -10.9793,-8.4143 -19.38557,-21.59883 -18.29039,-35.8995 0.1569,-0.57165 -0.27618,-2.12793 0.74321,-1.94799 z"
           id="path5"
           transform="scale(0.26458333)" /></g><path
         style="fill:#eff3f6;fill-opacity:1;stroke:#19262f;stroke-width:0.0165208;stroke-linecap:round;stroke-linejoin:round;stroke-dasharray:none;stroke-opacity:0.996078;paint-order:normal"
         d="m 215.4021,41.41978 c -0.45183,-0.0034 -0.88202,0.320276 -0.99817,0.758044 -0.12469,0.427864 0.0772,0.919125 0.46203,1.141814 0.36417,0.230014 0.87066,0.195577 1.20263,-0.07826 0.35172,-0.272731 0.48998,-0.790021 0.3013,-1.196729 -0.16285,-0.376757 -0.55669,-0.632636 -0.96779,-0.624892 z"
         id="path6" /></g></g></svg>
