<?xml version="1.0" encoding="UTF-8" standalone="no"?>
<!-- Created with Inkscape (http://www.inkscape.org/) -->

<svg
   width="1200"
   height="400"
   viewBox="0 0 317.49999 105.83333"
   version="1.1"
   id="svg1"
   xml:space="preserve"
   xmlns="http://www.w3.org/2000/svg"
   xmlns:svg="http://www.w3.org/2000/svg"><defs
     id="defs1" /><g
     id="layer1"><g
       id="layer1-5"
       transform="matrix(0.54962015,0,0,0.54962015,197.53097,15.688251)"><path
         style="fill:none;fill-opacity:1;stroke:#0f172a;stroke-width:2.27694;stroke-linecap:round;stroke-dasharray:none;stroke-opacity:1"
         id="path131"
         d="m 106.95623,74.6554 a 28.572704,31.31221 0 0 1 15.76383,35.16779 28.572704,31.31221 0 0 1 -27.90337,24.49796" /><path
         style="fill:none;fill-opacity:1;stroke:#0f172a;stroke-width:2.27694;stroke-linecap:round;stroke-dasharray:none;stroke-opacity:1"
         id="path132"
         d="M 95.411849,15.342308 A 37.630222,36.104488 0 0 1 111.44424,35.419205" /><path
         style="fill:none;fill-opacity:1;stroke:#0f172a;stroke-width:2.27694;stroke-linejoin:miter;stroke-dasharray:none;stroke-opacity:1"
         id="path133"
         d="M 35.142651,133.90982 A 34.291294,43.865108 0 0 1 5.9821057,112.508 34.291294,43.865108 0 0 1 5.1328496,69.516266" /><path
         style="fill:none;fill-opacity:1;stroke:#0f172a;stroke-width:2.27694;stroke-linecap:round;stroke-linejoin:miter;stroke-dasharray:none;stroke-opacity:1"
         id="path134"
         d="M 50.450445,73.368721 A 29.372423,26.556263 0 0 1 12.717144,69.061452" /><path
         style="fill:none;fill-opacity:1;stroke:#72d13d;stroke-width:2.27694;stroke-linecap:round;stroke-dasharray:none;stroke-opacity:1"
         id="path135"
         d="M 67.453551,92.334958 A 55.246422,55.770336 0 0 1 22.383397,88.550433" /><path
         style="fill:none;fill-opacity:1;stroke:#0f172a;stroke-width:2.27908;stroke-dasharray:none;stroke-opacity:1"
         d="m 34.904255,133.89923 59.967435,0.42792"
         id="path136" /><path
         style="fill:none;fill-opacity:1;stroke:#72d13d;stroke-width:2.27694;stroke-linecap:round;stroke-dasharray:none;stroke-opacity:1"
         id="path137"
         d="M 52.929478,123.67796 A 42.717102,35.332245 0 0 1 22.357803,88.736947" /><path
         style="fill:none;fill-opacity:1;stroke:#0f172a;stroke-width:2.27694;stroke-linecap:square;stroke-linejoin:miter;stroke-dasharray:none;stroke-opacity:1"
         id="path138"
         d="m 5.0049076,69.792317 a 4.2987823,4.2187572 0 0 1 3.2116339,-2.615994 4.2987823,4.2187572 0 0 1 3.9605355,1.2924" /><path
         style="fill:none;fill-opacity:1;stroke:#0f172a;stroke-width:2.27694;stroke-linecap:round;stroke-linejoin:miter;stroke-dasharray:none;stroke-opacity:1"
         id="path139"
         d="M 128.60848,37.494099 A 13.543728,8.6559439 0 0 1 115.57251,37.381402" /><path
         style="fill:none;fill-opacity:1;stroke:#0f172a;stroke-width:2.27694;stroke-linecap:round;stroke-linejoin:miter;stroke-dasharray:none;stroke-opacity:1"
         id="path140"
         d="m 128.85617,37.490291 a 5.6592073,5.1320448 0 0 1 4.3614,2.094798 5.6592073,5.1320448 0 0 1 0.88996,4.402261" /><path
         style="fill:none;fill-opacity:1;stroke:#0f172a;stroke-width:2.27694;stroke-linecap:round;stroke-linejoin:miter;stroke-dasharray:none;stroke-opacity:1"
         id="path141"
         d="m 106.6525,74.481455 a 6.201097,5.8309088 0 0 1 -2.86629,-4.684128 6.201097,5.8309088 0 0 1 2.45604,-4.885861" /><path
         id="path142"
         style="fill:#0f172a;fill-opacity:1;stroke:none;stroke-width:0.464776;stroke-linecap:round;stroke-linejoin:miter;stroke-dasharray:none;stroke-opacity:1"
         d="m 88.556171,33.851032 a 7.9624003,7.814174 0 0 0 -7.962062,7.813834 7.9624003,7.814174 0 0 0 7.962062,7.814732 7.9624003,7.814174 0 0 0 7.96206,-7.814732 7.9624003,7.814174 0 0 0 -7.96206,-7.813834 z m -2.779248,2.145679 a 2.8460863,2.7929735 0 0 1 2.846138,2.793157 2.8460863,2.7929735 0 0 1 -2.846138,2.793166 2.8460863,2.7929735 0 0 1 -2.846154,-2.793166 2.8460863,2.7929735 0 0 1 2.846154,-2.793157 z" /><path
         style="fill:none;fill-opacity:1;stroke:#0f172a;stroke-width:2.27694;stroke-linecap:round;stroke-linejoin:miter;stroke-dasharray:none;stroke-opacity:1"
         d="m 111.44428,35.419208 4.12825,1.962193"
         id="path143" /><path
         style="fill:none;fill-opacity:1;stroke:#0f172a;stroke-width:2.27694;stroke-linecap:round;stroke-linejoin:miter;stroke-dasharray:none;stroke-opacity:1"
         id="path144"
         d="m 134.3282,43.192957 a 14.578675,14.307281 0 0 1 -7.45752,10.03855" /><path
         style="fill:none;fill-opacity:1;stroke:#0f172a;stroke-width:2.27694;stroke-linecap:round;stroke-linejoin:miter;stroke-dasharray:none;stroke-opacity:1"
         id="path145"
         d="m 126.6227,53.431749 a 3.112056,3.0541224 0 0 1 1.83249,2.1201 3.112056,3.0541224 0 0 1 -0.67772,2.699372" /><path
         style="fill:none;fill-opacity:1;stroke:#0f172a;stroke-width:2.27694;stroke-linecap:round;stroke-linejoin:miter;stroke-dasharray:none;stroke-opacity:1"
         id="path146"
         d="M 127.76018,58.353405 A 20.335268,14.211184 0 0 1 106.3382,64.831767" /><path
         style="fill:none;fill-opacity:1;stroke:#0f172a;stroke-width:2.27694;stroke-linecap:round;stroke-dasharray:none;stroke-opacity:1"
         id="path147"
         d="M 50.568733,73.034022 A 37.630222,36.104488 0 0 1 39.350945,35.752385 37.630222,36.104488 0 0 1 69.832101,10.247973" /><path
         style="fill:none;fill-opacity:1;stroke:#0f172a;stroke-width:2.27694;stroke-linecap:round;stroke-linejoin:miter;stroke-dasharray:none;stroke-opacity:1"
         id="path148"
         d="M 79.505206,6.3261693 A 17.363247,14.390682 0 0 1 70.014495,10.215602" /><path
         style="fill:none;fill-opacity:1;stroke:#0f172a;stroke-width:1.32292;stroke-linecap:round;stroke-linejoin:miter;stroke-dasharray:none;stroke-opacity:1"
         d="M 69.405809,10.139929 C 70.431963,9.3915767 71.458118,8.643224 72.484273,7.8948713"
         id="path149"
         transform="matrix(1.7374094,0,0,1.7050661,-41.081117,-10.963078)" /><path
         style="fill:none;fill-opacity:1;stroke:#0f172a;stroke-width:2.27737;stroke-linecap:round;stroke-linejoin:round;stroke-dasharray:none;stroke-opacity:1"
         id="path150"
         d="m 75.653541,-40.919766 a 4.1534686,7.0149269 0 0 1 4.428432,-2.756243 4.1534686,7.0149269 0 0 1 3.095527,6.016953"
         transform="matrix(0.86275256,0.50562636,-0.48177105,0.87629713,0,0)" /><path
         style="fill:none;fill-opacity:1;stroke:#0f172a;stroke-width:2.27694;stroke-linecap:round;stroke-linejoin:round;stroke-dasharray:none;stroke-opacity:1"
         id="path151"
         d="M 89.809598,9.4658273 A 4.0091295,3.9344962 0 0 1 93.706174,8.5140363 4.0091295,3.9344962 0 0 1 96.4891,11.35484 4.0091295,3.9344962 0 0 1 95.366655,15.138458" /><path
         style="fill:none;fill-opacity:1;stroke:#0f172a;stroke-width:1.32292;stroke-linecap:round;stroke-linejoin:round;stroke-dasharray:none;stroke-opacity:1"
         d="m 87.788974,27.20263 c -0.150503,2.646494 -0.301006,5.292987 -1.860679,7.424529 -1.559672,2.131542 -4.528397,3.748068 -4.942937,5.299853 -0.41454,1.551785 1.725078,3.038735 2.785701,3.790012 1.060623,0.751278 1.042197,0.766863 1.023777,0.782443"
         id="path152"
         transform="matrix(1.7374094,0,0,1.7050661,-41.081117,-10.963078)" /><path
         style="fill:#72d13d;fill-opacity:1;stroke:#72d13d;stroke-width:0.130038;stroke-opacity:1"
         d="m 424.88614,140.09916 c -0.65368,0.69248 -0.32346,1.78142 -0.53176,2.64274 -0.71102,9.60557 -1.92126,19.19604 -5.36947,28.26058 -2.66884,7.14351 -6.93419,13.60094 -12.27915,19.01707 -6.80991,6.98729 -14.71248,12.80221 -21.66068,19.65383 -1.97928,2.11749 -4.07449,4.36953 -4.91791,7.21041 -0.73674,2.79945 0.72418,5.57336 2.28481,7.80507 4.51763,5.986 10.97833,10.01336 16.98062,14.33309 1.22487,0.74675 2.2701,1.82599 3.59941,2.3801 2.95217,0.58586 5.98161,0.69732 8.97803,0.93095 8.79164,0.39553 17.65006,-0.1965 26.27781,-1.96125 12.72935,-2.65429 25.1664,-7.72515 35.31636,-15.97418 2.95577,-2.5169 6.02027,-5.11549 7.85227,-8.60716 1.58923,-3.34673 0.32272,-7.72408 -2.85411,-9.65532 -1.34941,-0.82414 -3.20864,-1.52862 -3.52398,-3.28448 -0.0662,-1.11339 -0.16761,-2.39156 0.75153,-3.21183 1.90377,-2.05031 4.65251,-2.94828 6.85734,-4.60384 9.75878,-6.61365 17.25178,-16.68177 20.36341,-28.08773 0.9252,-3.56412 1.46763,-7.48472 -0.0365,-10.97631 -2.08274,-5.24208 -7.05823,-9.02003 -12.5284,-10.13399 -1.7333,-0.39844 -3.59209,-0.68008 -5.29239,0.0175 -7.39575,2.28811 -15.10164,3.28948 -22.77339,3.28919 -8.37156,0.11135 -16.70513,-1.10844 -24.67904,-3.68363 -4.21911,-1.45577 -8.20623,-3.74107 -12.36504,-5.4588 -0.14993,0.0327 -0.29986,0.0654 -0.4498,0.098 z"
         id="path1"
         transform="scale(0.26458333)" /><path
         style="fill:#f5f7fa;fill-opacity:1;stroke:#f5f7fa;stroke-width:0.563957;stroke-opacity:1"
         d="m 332.4173,8.3844519 c -6.59304,1.2012923 -11.58523,6.3900001 -17.11807,9.8152721 -12.25803,8.641381 -24.17392,18.639321 -39.17517,22.020751 -13.12597,2.947125 -26.71993,4.515682 -39.40777,9.387051 -28.12062,9.885652 -52.62521,29.456559 -69.05149,54.258564 -13.71426,21.59616 -21.49219,47.11618 -20.57347,72.79097 0.43852,34.00295 15.67538,67.19538 40.33774,90.46544 2.33953,2.792 6.04246,5.12192 7.57965,8.18584 0.21776,5.41047 -5.86691,7.10629 -9.63105,9.28388 -33.92014,16.94592 -75.76667,17.03583 -109.88456,0.52651 -12.388416,-5.85876 -23.214683,-14.52548 -33.100519,-23.98579 -3.498284,-3.4978 -8.88319,-4.72987 -13.379656,-2.42546 -6.589602,3.13134 -7.899112,11.24901 -10.390849,17.36282 -6.462991,19.98749 -10.5082462,40.93909 -10.0081517,62.013 -0.2801161,14.35356 0.5312404,28.75371 3.7038957,42.79243 7.501913,37.76406 26.474436,74.2485 57.214082,98.16925 18.057745,13.9949 40.521288,23.3588 63.631298,22.81932 75.27177,1.02699 150.55479,1.4716 225.82911,2.02454 20.71811,-0.66098 41.33977,-7.28161 57.85289,-19.96703 26.67761,-20.03765 42.99076,-52.49791 45.21699,-85.57806 1.00372,-16.49896 -0.56176,-33.24552 -6.1506,-48.88031 -8.87926,-26.7962 -27.96189,-50.07915 -52.83668,-63.53954 -7.37108,-3.71811 -12.97904,-10.65876 -14.22338,-18.90136 -1.36378,-7.38286 0.92572,-15.30337 5.90392,-20.90936 -0.70355,-2.60641 -4.64137,-3.76889 -6.56261,-5.8125 -6.91036,-5.50694 -15.5806,-11.98467 -15.65421,-21.66057 -0.45432,-8.14368 6.81838,-13.73987 12.08789,-18.89374 10.41043,-9.48542 22.82254,-18.40071 27.39019,-32.38667 3.59783,-10.42243 4.88739,-21.5915 4.90929,-32.56741 C 413.4811,121.35235 406.26903,109.13884 398.42448,97.809057 387.82194,83.072019 373.7937,71.164364 358.73492,61.197026 c -2.68878,-1.708856 -2.80736,-5.594794 -0.31612,-7.593591 4.01597,-4.702427 3.36429,-12.551127 -2.02453,-15.93178 -4.69983,-3.516992 -11.11563,-1.857424 -15.32486,1.582824 -3.18816,1.505392 -6.5122,-1.953979 -5.08332,-5.069002 2.26779,-7.18187 5.80475,-15.582076 1.8582,-22.833643 -1.13461,-1.8540959 -3.25855,-2.9974711 -5.42699,-2.9673821 z m 2.48273,120.0512081 c 13.94686,-0.35608 27.16984,10.7617 28.94575,24.71277 2.3743,13.56928 -6.55082,28.11393 -19.85856,31.88668 -11.99672,4.0693 -26.23803,-0.37918 -33.54,-10.91454 -9.31241,-12.39427 -5.78442,-32.01565 7.16731,-40.42315 5.04235,-3.48496 11.16994,-5.27632 17.2855,-5.26176 z M 84.200293,330.89836 c 12.25132,4.80324 23.783957,11.39774 36.384037,15.37991 19.67022,6.6604 40.37302,10.65487 61.19371,10.30987 15.21961,0.22322 30.54954,-0.28546 45.40079,-3.94059 9.48005,-1.667 18.45177,-5.42247 27.88717,-7.17773 4.05462,-0.84858 5.00507,5.97186 1.27331,6.79832 -25.32321,9.78801 -52.6943,13.23791 -79.71398,12.23632 -30.27501,-0.86737 -59.99048,-9.48872 -87.232663,-22.5803 -2.016338,0.63973 -0.465045,3.79445 -0.772142,5.39283 2.413837,32.71495 20.424905,62.94916 45.641225,83.40542 18.95247,15.75325 41.78854,26.16692 65.41421,32.72563 3.42405,0.37511 6.17611,4.9248 2.49155,7.12436 -4.82225,1.32326 -9.65953,-1.50604 -14.41504,-2.54024 -37.75686,-11.83618 -72.80083,-36.29338 -92.159583,-71.40308 -10.613916,-19.20279 -16.215406,-41.45603 -14.484442,-63.3317 0.50614,-1.20313 1.800325,-2.20475 3.091848,-2.39902 z"
         id="path2"
         transform="scale(0.26458333)" /><path
         style="fill:#f5f7fa;fill-opacity:1;stroke:#f5f7fa;stroke-width:0.124466;stroke-opacity:1"
         d="m 323.92383,135.42231 c -5.58363,0.0385 -10.80198,4.77138 -11.04613,10.41018 -0.42766,4.55478 2.40287,9.10532 6.58139,10.90148 3.22304,1.52866 7.16873,1.36844 10.25946,-0.4101 3.74283,-1.9311 6.1567,-6.20167 5.8149,-10.41019 -0.20241,-5.0828 -4.42589,-9.51688 -9.39476,-10.31128 -0.73016,-0.13028 -1.47308,-0.19423 -2.21486,-0.18009 z"
         id="path3"
         transform="scale(0.26458333)" /></g><text
       xml:space="preserve"
       style="font-style:normal;font-variant:normal;font-weight:normal;font-stretch:normal;font-size:39.6875px;line-height:0;font-family:'JetBrains Mono';-inkscape-font-specification:'JetBrains Mono';writing-mode:lr-tb;direction:ltr;fill:#f5f7fa;fill-opacity:1;stroke:#0f172a;stroke-width:0.396875;stroke-dasharray:none;stroke-opacity:1"
       x="43.56913"
       y="44.661728"
       id="text9"><tspan
         id="tspan9"
         style="font-style:normal;font-variant:normal;font-weight:bold;font-stretch:normal;font-size:39.6875px;font-family:'JetBrains Mono';-inkscape-font-specification:'JetBrains Mono Bold';fill:#f5f7fa;fill-opacity:1;stroke:#0f172a;stroke-width:0.396875;stroke-dasharray:none;stroke-opacity:1"
         x="43.56913"
         y="44.661728">forloop</tspan></text><text
       xml:space="preserve"
       style="font-style:normal;font-variant:normal;font-weight:bold;font-stretch:normal;font-size:39.6875px;line-height:0;font-family:'JetBrains Mono';-inkscape-font-specification:'JetBrains Mono Bold';writing-mode:lr-tb;direction:ltr;fill:#72d13d;fill-opacity:1;stroke:#0f172a;stroke-width:0.396875;stroke-dasharray:none;stroke-opacity:1"
       x="42.537292"
       y="82.999771"
       id="text3"><tspan
         id="tspan2"
         style="font-size:39.6875px;fill:#72d13d;fill-opacity:1;stroke:#0f172a;stroke-width:0.396875;stroke-dasharray:none;stroke-opacity:1"
         x="42.537292"
         y="82.999771">coding</tspan></text></g></svg>
